<svg xmlns="http://www.w3.org/2000/svg" xmlns:xlink="http://www.w3.org/1999/xlink" width="500" zoomAndPan="magnify" viewBox="0 0 375 374.999991" height="500" preserveAspectRatio="xMidYMid meet" version="1.0"><defs><clipPath id="75e5fc4809"><path d="M 174 37.5 L 271.804688 37.5 L 271.804688 188 L 174 188 Z M 174 37.5 " clip-rule="nonzero"/></clipPath><clipPath id="80301627f1"><path d="M 103.054688 37.5 L 271.804688 37.5 L 271.804688 337.5 L 103.054688 337.5 Z M 103.054688 37.5 " clip-rule="nonzero"/></clipPath></defs><g clip-path="url(#75e5fc4809)"><path fill="#1f6242" d="M 271.929688 37.574219 L 271.542969 142.867188 L 234.105469 180.664062 L 227.296875 187.539062 L 227.136719 187.695312 L 174.929688 135.484375 L 175.085938 135.328125 L 181.894531 128.453125 L 271.929688 37.574219 " fill-opacity="1" fill-rule="nonzero"/></g><path fill="#1f6242" d="M 227.296875 187.539062 L 175.085938 135.328125 L 181.894531 128.453125 L 234.105469 180.664062 L 227.296875 187.539062 " fill-opacity="1" fill-rule="nonzero"/><g clip-path="url(#80301627f1)"><path fill="#d9d9d9" d="M 271.929688 337.390625 L 271.542969 232.101562 L 177.238281 137.792969 L 177.238281 37.574219 L 103.058594 109.925781 L 103.058594 285.332031 L 161.25 226.710938 L 271.929688 337.390625 " fill-opacity="1" fill-rule="nonzero"/></g></svg>